<svg width="514" height="514" viewBox="0 0 514 514" fill="none" xmlns="http://www.w3.org/2000/svg">
<circle cx="257" cy="257" r="255" fill="white"/>
<path d="M62.4877 306.106C79.3978 310.889 97.0339 313.62 114.43 315.809C153.133 320.679 192.617 320.687 231.102 314.108C273.323 306.891 316.713 290.452 348.97 261.598C358.831 252.777 366.606 242.283 374.403 231.683C381.946 221.429 390.411 212.464 401.206 205.576C409.799 200.091 419.214 195.972 428.747 192.424C432.23 191.127 430.742 185.501 427.227 186.809C411.751 192.571 396.741 199.817 384.503 211.085C375.78 219.116 369.347 229.109 362.203 238.472C338.446 269.61 301.838 288.753 264.987 300.119C224.682 312.55 181.773 315.247 139.845 312.444C115.43 310.812 90.9116 307.34 67.1627 301.328C66.1091 301.062 65.0551 300.791 64.0089 300.495C60.3901 299.47 58.8808 305.085 62.4877 306.106Z" fill="#00C2BD" fill-opacity="0.7"/>
<path d="M366.141 242.011C371.272 232.22 374.498 221.165 376.923 210.442C382.422 186.146 382.148 160.702 375.742 136.593C374.78 132.973 369.17 134.482 370.132 138.101C376.377 161.603 376.462 186.156 371.109 209.814C368.861 219.751 365.854 230.041 361.1 239.114C359.367 242.421 364.401 245.333 366.141 242.011Z" fill="#00C2BD" fill-opacity="0.7"/>
<path d="M352.053 141.17C354.4 149.833 363.334 154.967 372.006 152.636C380.679 150.306 385.806 141.395 383.458 132.732C381.111 124.069 372.177 118.936 363.505 121.266C354.832 123.596 349.705 132.507 352.053 141.17Z" fill="#00C2BD"/>
<path d="M231.793 310.973C231.793 310.973 196.49 267.977 296.516 224.633C296.516 224.633 300.323 244.009 279.118 275.853C256.827 309.334 231.793 310.973 231.793 310.973Z" fill="#00C2BD" fill-opacity="0.7"/>
<path d="M353.118 254.247C353.118 254.247 308.33 253.402 333.776 169.481C333.776 169.481 347.659 177.274 356.182 206.904C365.143 238.056 353.118 254.247 353.118 254.247Z" fill="#00C2BD" fill-opacity="0.7"/>
<path d="M73.7525 304.806C73.7525 304.806 43.6834 248.359 155.757 207.162C155.757 207.162 153.122 246.281 126.596 276.562C98.7088 308.396 73.7525 304.806 73.7525 304.806Z" fill="#00C2BD" fill-opacity="0.7"/>
<path d="M281.934 299.646C281.934 299.646 287.491 351.052 380.694 316.078C380.694 316.078 370.373 300.66 335.67 292.889C299.187 284.724 281.934 299.646 281.934 299.646Z" fill="#00C2BD" fill-opacity="0.7"/>
<path d="M150.821 317.44C150.821 317.44 137.127 367.248 236.785 368.492C236.785 368.492 232.83 350.418 203.356 330.622C172.37 309.815 150.821 317.44 150.821 317.44Z" fill="#00C2BD" fill-opacity="0.7"/>
<path d="M117.028 314.803L116.302 311.562C116.831 311.445 169.43 299.26 193.299 251.132L196.279 252.608C183.422 278.531 162.571 294.058 147.342 302.518C130.853 311.678 117.584 314.679 117.028 314.803Z" fill="#00C2BD" fill-opacity="0.7"/>
<path d="M419.081 191.817C421.092 199.24 428.748 203.639 436.179 201.643C443.611 199.646 448.004 192.009 445.993 184.586C443.981 177.163 436.326 172.764 428.894 174.76C421.463 176.757 417.069 184.393 419.081 191.817Z" fill="#00C2BD"/>
<path d="M184.006 243.872C186.353 252.535 195.287 257.668 203.959 255.338C212.632 253.008 217.759 244.096 215.411 235.434C213.064 226.771 204.13 221.637 195.458 223.967C186.785 226.297 181.658 235.209 184.006 243.872Z" fill="#00C2BD"/>
</svg>
