<svg width="40" height="40" viewBox="0 0 40 40" fill="none" xmlns="http://www.w3.org/2000/svg">
<circle cx="20" cy="20" r="19.7" fill="white"/>
<path d="M4.86323 23.8232C6.17913 24.1954 7.55154 24.4078 8.90526 24.5781C11.917 24.9569 14.9896 24.9574 17.9845 24.4453C21.2701 23.8834 24.6468 22.6039 27.1571 20.3582C27.9245 19.6718 28.5295 18.855 29.1363 18.0301C29.7234 17.232 30.3822 16.5343 31.2223 15.9982C31.891 15.5713 32.6237 15.2507 33.3655 14.9745C33.6365 14.8736 33.5208 14.4358 33.2472 14.5376C32.0429 14.9861 30.8748 15.55 29.9224 16.427C29.2436 17.0521 28.7429 17.8297 28.1869 18.5585C26.3381 20.9818 23.4892 22.4717 20.6214 23.3564C17.4849 24.324 14.1458 24.5341 10.8831 24.3161C8.98307 24.1892 7.07514 23.9191 5.22705 23.4514C5.14507 23.4306 5.06305 23.4095 4.98164 23.3865C4.70003 23.3068 4.58256 23.7438 4.86323 23.8232Z" fill="#00C2BD" fill-opacity="0.7"/>
<path d="M28.4935 18.8335C28.8928 18.0716 29.1438 17.2113 29.3326 16.3768C29.7604 14.4861 29.7392 12.506 29.2406 10.6298C29.1658 10.3481 28.7292 10.4655 28.8041 10.7471C29.2901 12.5761 29.2967 14.4869 28.8801 16.328C28.7051 17.1012 28.4712 17.902 28.1011 18.6081C27.9663 18.8655 28.3581 19.092 28.4935 18.8335Z" fill="#00C2BD" fill-opacity="0.7"/>
<path d="M27.3971 10.986C27.5798 11.6601 28.275 12.0596 28.9499 11.8783C29.6248 11.697 30.0238 11.0034 29.8411 10.3293C29.6584 9.65515 28.9632 9.25564 28.2883 9.43698C27.6134 9.61831 27.2144 10.3118 27.3971 10.986Z" fill="#00C2BD"/>
<path d="M18.0384 24.2002C18.0384 24.2002 15.2911 20.8542 23.0752 17.4811C23.0752 17.4811 23.3714 18.9889 21.7213 21.4671C19.9865 24.0726 18.0384 24.2002 18.0384 24.2002Z" fill="#00C2BD" fill-opacity="0.7"/>
<path d="M27.48 19.7858C27.48 19.7858 23.9946 19.72 25.9748 13.1891C25.9748 13.1891 27.0552 13.7956 27.7185 16.1015C28.4158 18.5257 27.48 19.7858 27.48 19.7858Z" fill="#00C2BD" fill-opacity="0.7"/>
<path d="M5.73951 23.7203C5.73951 23.7203 3.3995 19.3275 12.1212 16.1216C12.1212 16.1216 11.9161 19.1658 9.85187 21.5223C7.68163 23.9996 5.73951 23.7203 5.73951 23.7203Z" fill="#00C2BD" fill-opacity="0.7"/>
<path d="M21.9404 23.3187C21.9404 23.3187 22.3728 27.3192 29.626 24.5975C29.626 24.5975 28.8228 23.3976 26.1222 22.7929C23.283 22.1574 21.9404 23.3187 21.9404 23.3187Z" fill="#00C2BD" fill-opacity="0.7"/>
<path d="M11.7378 24.6983C11.7378 24.6983 10.675 28.5743 18.4293 28.6767C18.4293 28.6767 18.1206 27.2697 15.8262 25.7273C13.414 24.106 11.7378 24.6983 11.7378 24.6983Z" fill="#00C2BD" fill-opacity="0.7"/>
<path d="M9.10723 24.4983L9.05079 24.2461C9.09191 24.2369 13.1853 23.2886 15.0427 19.5433L15.2746 19.6582C14.2741 21.6756 12.6514 22.8838 11.4663 23.5423C10.1832 24.255 9.15055 24.4886 9.10723 24.4983Z" fill="#00C2BD" fill-opacity="0.7"/>
<path d="M32.6132 14.9275C32.7698 15.5051 33.3655 15.8475 33.9438 15.6921C34.5222 15.5367 34.8641 14.9425 34.7075 14.3648C34.551 13.7871 33.9552 13.4447 33.3769 13.6001C32.7986 13.7555 32.4567 14.3498 32.6132 14.9275Z" fill="#00C2BD"/>
<path d="M14.3195 18.9783C14.5022 19.6525 15.1974 20.052 15.8723 19.8706C16.5472 19.6893 16.9462 18.9958 16.7635 18.3216C16.5808 17.6475 15.8856 17.248 15.2107 17.4293C14.5358 17.6107 14.1368 18.3042 14.3195 18.9783Z" fill="#00C2BD"/>
</svg>
