<svg width="40" height="40" viewBox="0 0 40 40" fill="none" xmlns="http://www.w3.org/2000/svg">
<g clip-path="url(#clip0)">
<rect width="40" height="40" fill="white"/>
<path d="M0.930529 25.1396C2.62873 25.62 4.39987 25.8941 6.14689 26.1138C10.0337 26.6026 13.999 26.6031 17.864 25.942C22.1042 25.2168 26.462 23.5653 29.7017 20.6671C30.6921 19.7811 31.473 18.7269 32.2562 17.6623C33.0138 16.6323 33.864 15.7319 34.9482 15.0399C35.8112 14.489 36.7568 14.0752 37.7141 13.7187C38.0639 13.5885 37.9145 13.0234 37.5615 13.1548C36.0073 13.7337 34.4998 14.4615 33.2706 15.5934C32.3946 16.4001 31.7484 17.4038 31.0309 18.3443C28.6448 21.4719 24.9681 23.3948 21.2671 24.5367C17.2193 25.7856 12.91 26.0568 8.69935 25.7756C6.24733 25.6119 3.78508 25.2634 1.40007 24.6598C1.29427 24.633 1.18842 24.6058 1.08335 24.5761C0.719928 24.4732 0.568312 25.0372 0.930529 25.1396Z" fill="#00C2BD" fill-opacity="0.7"/>
<path d="M31.4265 18.6991C31.9418 17.7158 32.2658 16.6055 32.5094 15.5286C33.0616 13.0885 33.0342 10.5331 32.3908 8.11179C32.2942 7.74818 31.7308 7.89977 31.8274 8.26319C32.4546 10.6236 32.4631 13.0895 31.9255 15.4656C31.6997 16.4635 31.3978 17.497 30.9202 18.4082C30.7462 18.7404 31.2518 19.0328 31.4265 18.6991Z" fill="#00C2BD" fill-opacity="0.7"/>
<path d="M30.0118 8.57128C30.2476 9.44131 31.1448 9.95689 32.0158 9.72287C32.8868 9.48884 33.4017 8.59383 33.1659 7.7238C32.9302 6.85377 32.0329 6.33818 31.1619 6.57221C30.291 6.80623 29.776 7.70125 30.0118 8.57128Z" fill="#00C2BD"/>
<path d="M17.9336 25.625C17.9336 25.625 14.3881 21.3068 24.434 16.9537C24.434 16.9537 24.8163 18.8996 22.6867 22.0978C20.4478 25.4604 17.9336 25.625 17.9336 25.625Z" fill="#00C2BD" fill-opacity="0.7"/>
<path d="M30.1188 19.928C30.1188 19.928 25.6206 19.8431 28.1763 11.4147C28.1763 11.4147 29.5705 12.1974 30.4265 15.1732C31.3265 18.3018 30.1188 19.928 30.1188 19.928Z" fill="#00C2BD" fill-opacity="0.7"/>
<path d="M2.06122 25.0058C2.06122 25.0058 -0.9587 19.3367 10.2971 15.1992C10.2971 15.1992 10.0325 19.128 7.36847 22.1691C4.56765 25.3663 2.06122 25.0058 2.06122 25.0058Z" fill="#00C2BD" fill-opacity="0.7"/>
<path d="M22.9695 24.4875C22.9695 24.4875 23.5276 29.6504 32.8882 26.1379C32.8882 26.1379 31.8516 24.5893 28.3663 23.8089C24.7023 22.9888 22.9695 24.4875 22.9695 24.4875Z" fill="#00C2BD" fill-opacity="0.7"/>
<path d="M9.8028 26.2644C9.8028 26.2644 8.43335 31.2665 18.4399 31.4026C18.4399 31.4026 18.0409 29.5864 15.0793 27.5945C11.9656 25.5008 9.8028 26.2644 9.8028 26.2644Z" fill="#00C2BD" fill-opacity="0.7"/>
<path d="M6.40742 26.0098L6.33459 25.6843C6.38766 25.6725 11.6704 24.4487 14.0676 19.6151L14.3668 19.7634C13.0756 22.3669 10.9814 23.9262 9.45194 24.776C7.79599 25.6959 6.46334 25.9974 6.40742 26.0098Z" fill="#00C2BD" fill-opacity="0.7"/>
<path d="M36.7435 13.6579C36.9456 14.4034 37.7144 14.8453 38.4608 14.6447C39.2071 14.4442 39.6484 13.6772 39.4464 12.9317C39.2443 12.1862 38.4755 11.7443 37.7291 11.9449C36.9828 12.1454 36.5415 12.9123 36.7435 13.6579Z" fill="#00C2BD"/>
<path d="M13.1343 18.8859C13.3701 19.7559 14.2673 20.2715 15.1383 20.0375C16.0093 19.8034 16.5243 18.9084 16.2885 18.0384C16.0527 17.1684 15.1555 16.6528 14.2845 16.8868C13.4135 17.1208 12.8986 18.0158 13.1343 18.8859Z" fill="#00C2BD"/>
</g>
<defs>
<clipPath id="clip0">
<rect width="40" height="40" fill="white"/>
</clipPath>
</defs>
</svg>
