<svg width="40" height="40" viewBox="0 0 40 40" fill="none" xmlns="http://www.w3.org/2000/svg">
<rect width="40" height="40" fill="white"/>
<path d="M5.09123 23.2803C6.37488 23.6434 7.71365 23.8505 9.0342 24.0166C11.9722 24.3861 14.9695 24.3865 17.891 23.8868C21.0961 23.3386 24.3901 22.0903 26.8389 19.8995C27.5875 19.2298 28.1778 18.433 28.7698 17.6283C29.3424 16.8497 29.9851 16.1691 30.8047 15.6461C31.457 15.2296 32.1717 14.9168 32.8954 14.6474C33.1598 14.5489 33.0469 14.1218 32.78 14.2212C31.6052 14.6587 30.4657 15.2089 29.5366 16.0644C28.8744 16.6742 28.386 17.4329 27.8436 18.1438C26.04 20.5079 23.2609 21.9614 20.4633 22.8245C17.4036 23.7686 14.1464 23.9735 10.9636 23.761C9.11012 23.6373 7.24894 23.3738 5.44615 22.9176C5.36617 22.8974 5.28616 22.8768 5.20675 22.8543C4.93204 22.7766 4.81744 23.2029 5.09123 23.2803Z" fill="#00C2BD" fill-opacity="0.7"/>
<path d="M28.1431 18.412C28.5326 17.6687 28.7774 16.8295 28.9616 16.0154C29.379 14.171 29.3583 12.2394 28.8719 10.4092C28.7989 10.1343 28.373 10.2489 28.4461 10.5236C28.9202 12.3078 28.9266 14.1718 28.5202 15.9678C28.3495 16.7221 28.1213 17.5033 27.7603 18.1921C27.6288 18.4431 28.011 18.6642 28.1431 18.412Z" fill="#00C2BD" fill-opacity="0.7"/>
<path d="M27.0733 10.7565C27.2515 11.4141 27.9297 11.8039 28.5881 11.627C29.2465 11.4501 29.6357 10.7736 29.4575 10.1159C29.2792 9.45827 28.6011 9.06854 27.9427 9.24544C27.2843 9.42233 26.8951 10.0989 27.0733 10.7565Z" fill="#00C2BD"/>
<path d="M17.9438 23.6472C17.9438 23.6472 15.2638 20.3831 22.8573 17.0927C22.8573 17.0927 23.1463 18.5636 21.5366 20.981C19.8443 23.5228 17.9438 23.6472 17.9438 23.6472Z" fill="#00C2BD" fill-opacity="0.7"/>
<path d="M27.1543 19.3409C27.1543 19.3409 23.7542 19.2768 25.686 12.9058C25.686 12.9058 26.7399 13.4975 27.3869 15.7469C28.0672 18.1117 27.1543 19.3409 27.1543 19.3409Z" fill="#00C2BD" fill-opacity="0.7"/>
<path d="M5.946 23.1792C5.946 23.1792 3.66329 18.894 12.1714 15.7665C12.1714 15.7665 11.9714 18.7362 9.95767 21.035C7.84057 23.4517 5.946 23.1792 5.946 23.1792Z" fill="#00C2BD" fill-opacity="0.7"/>
<path d="M21.7501 22.7875C21.7501 22.7875 22.172 26.69 29.2475 24.0349C29.2475 24.0349 28.464 22.8644 25.8295 22.2745C23.0599 21.6546 21.7501 22.7875 21.7501 22.7875Z" fill="#00C2BD" fill-opacity="0.7"/>
<path d="M11.7977 24.1305C11.7977 24.1305 10.7625 27.9116 18.3263 28.0144C18.3263 28.0144 18.0247 26.6416 15.7861 25.1359C13.4325 23.5534 11.7977 24.1305 11.7977 24.1305Z" fill="#00C2BD" fill-opacity="0.7"/>
<path d="M9.23124 23.9381L9.17619 23.6921C9.2163 23.6831 13.2094 22.7581 15.0214 19.1045L15.2476 19.2165C14.2716 21.1845 12.6887 22.3632 11.5325 23.0055C10.2808 23.7008 9.27351 23.9287 9.23124 23.9381Z" fill="#00C2BD" fill-opacity="0.7"/>
<path d="M32.1616 14.6014C32.3143 15.1649 32.8955 15.4989 33.4596 15.3473C34.0238 15.1957 34.3573 14.616 34.2046 14.0525C34.0519 13.4889 33.4708 13.155 32.9066 13.3065C32.3424 13.4581 32.0089 14.0379 32.1616 14.6014Z" fill="#00C2BD"/>
<path d="M14.3161 18.5531C14.4943 19.2108 15.1725 19.6005 15.8309 19.4236C16.4893 19.2467 16.8785 18.5702 16.7003 17.9125C16.522 17.2549 15.8438 16.8652 15.1855 17.0421C14.5271 17.219 14.1379 17.8955 14.3161 18.5531Z" fill="#00C2BD"/>
</svg>
