<?xml version="1.0" encoding="iso-8859-1"?>
<!-- Generator: Adobe Illustrator 16.0.0, SVG Export Plug-In . SVG Version: 6.00 Build 0)  -->
<!DOCTYPE svg PUBLIC "-//W3C//DTD SVG 1.1//EN" "http://www.w3.org/Graphics/SVG/1.1/DTD/svg11.dtd">
<svg width="979" height="749" viewBox="0 0 979 749" fill="none" xmlns="http://www.w3.org/2000/svg">
<g clip-path="url(#clip0)">
<path d="M317.116 155.993L321.383 148.313C335.89 119.3 362.343 106.5 393.063 121.006C469.01 155.993 501.436 268.633 461.33 347.139L457.063 354.819C441.703 384.686 428.903 396.632 398.183 382.126C311.142 341.166 274.449 239.619 317.116 155.993Z" fill="#0DC1BC"/>
<path d="M691.729 234.499H683.196C679.783 234.499 676.369 234.499 673.809 235.352C703.676 238.765 726.716 264.365 726.716 295.085C726.716 388.952 644.796 448.685 573.116 448.685H581.649C675.516 448.685 752.316 389.805 752.316 295.085C751.462 260.953 725.009 234.499 691.729 234.499Z" fill="#0DC1BC"/>
<path d="M297.394 566.163L291.374 560.135C266.433 537.743 265.573 499.851 288.794 475.737C354.158 405.118 414.362 402.535 486.606 469.708L492.626 475.737C517.567 498.128 518.427 536.02 495.206 560.135C428.982 625.586 368.778 628.169 297.394 566.163Z" fill="#0DC1BC"/>
<path d="M377.413 608.177C351.813 603.91 325.36 589.404 297.2 565.51L291.227 559.537C266.48 537.35 265.627 499.804 288.667 475.91C319.387 443.483 348.4 425.563 378.267 422.15C335.6 424.71 294.64 442.63 263.067 475.91C240.027 499.803 240.88 536.497 265.627 559.537L271.6 565.51C301.466 591.111 339.013 605.617 377.413 608.177C377.413 608.177 377.413 609.031 377.413 608.177Z" fill="white"/>
<path d="M516.506 476.764L510.533 470.791C475.546 438.364 431.173 422.151 386.8 423.004C417.52 423.004 449.947 438.364 484.933 470.791L490.906 476.764C515.653 498.951 516.506 536.497 493.466 560.391C457.626 595.378 423.493 612.444 387.653 609.884C435.44 610.737 483.226 594.524 519.066 560.391C542.96 536.497 542.106 498.951 516.506 476.764Z" fill="#0DC1BC"/>
<path d="M542.106 476.764L536.133 470.791C501.146 438.364 456.773 422.151 412.4 423.004C443.12 423.004 475.547 438.364 510.533 470.791L516.506 476.764C541.253 498.951 542.106 536.497 519.066 560.391C483.226 595.378 449.093 612.444 413.253 609.884C461.04 610.737 508.826 594.524 544.666 560.391C568.56 536.497 567.706 498.951 542.106 476.764Z" fill="#0DC1BC"/>
<path d="M561.733 439.217H553.2C519.92 439.217 502 412.764 502 379.484C502 285.617 599.28 208.817 647.067 208.817H655.6C688.88 208.817 715.333 235.27 715.333 268.55C715.333 363.271 633.413 439.217 561.733 439.217Z" fill="#0DC1BC"/>
<path d="M677.786 208.817H669.253C665.84 208.817 662.426 208.817 659.866 209.67C689.733 213.083 712.773 238.683 712.773 269.403C712.773 363.27 630.853 440.07 559.173 440.07H567.706C661.573 440.07 738.373 364.123 738.373 269.403C737.52 235.271 711.066 208.817 677.786 208.817Z" fill="#0DC1BC"/>
<path d="M289.52 155.911L293.787 148.231C308.294 119.218 334.747 106.418 365.467 120.924C441.414 155.911 473.84 268.551 433.734 347.057L429.467 354.737C414.107 384.604 401.307 396.55 370.587 382.044C283.546 341.084 246.853 239.537 289.52 155.911Z" fill="#0DC1BC"/>
<path d="M371.44 382.044C283.546 341.084 246.853 239.537 289.52 155.911L293.787 148.231C303.174 130.311 316.827 118.364 333.04 115.804C306.587 112.391 280.133 124.337 268.187 148.231L263.92 155.911C221.253 239.538 257.093 341.084 345.84 382.044C358.64 388.017 372.293 388.871 385.093 387.164C380.826 386.311 376.56 384.604 371.44 382.044Z" fill="white"/>
<path d="M570.266 447.751H561.733C524.186 447.751 493.466 417.031 493.466 379.484C493.466 280.497 573.679 200.284 672.666 200.284H681.199C718.746 200.284 749.466 231.004 749.466 268.551C749.466 367.537 669.253 447.751 570.266 447.751ZM672.666 217.351C583.066 217.351 510.533 289.884 510.533 379.484C510.533 407.644 533.573 430.684 561.733 430.684H570.266C659.866 430.684 732.399 358.151 732.399 268.551C732.399 240.391 709.359 217.351 681.199 217.351H672.666V217.351Z" fill="black"/>
<path d="M519.066 429.831C513.946 429.831 510.533 426.418 510.533 421.298C510.533 360.711 560.026 311.218 621.466 311.218C676.079 311.218 715.333 275.378 715.333 226.738C715.333 221.618 718.746 218.205 723.866 218.205C728.986 218.205 732.399 221.618 732.399 226.738C732.399 285.618 685.466 328.285 621.466 328.285C569.413 328.285 527.599 370.098 527.599 421.298C527.6 425.564 524.186 429.831 519.066 429.831Z" fill="black"/>
<path d="M373.146 396.551C362.906 396.551 352.666 393.991 342.426 389.724C300.613 370.951 269.039 337.671 251.119 297.564C249.412 293.297 251.119 288.177 255.386 286.471C259.653 284.765 264.773 286.471 266.479 290.738C281.839 327.431 310.852 356.445 348.399 374.365C374.852 387.165 407.279 376.072 420.079 351.325L424.346 343.645C443.973 306.098 446.533 263.432 432.879 223.325C418.372 181.512 387.652 148.232 346.692 128.605C321.092 116.658 288.665 126.898 275.865 152.498L271.6 159.324C260.507 180.657 255.387 202.844 254.533 225.884C254.533 231.004 250.266 234.417 246 234.417C240.88 234.417 237.467 230.15 237.467 225.884C238.32 200.284 244.294 175.537 256.24 152.497L260.507 144.817C277.574 111.537 320.24 97.03 355.227 114.097C400.454 135.43 434.587 172.124 450.8 218.204C466.16 262.577 462.747 309.511 441.413 351.324L437.146 359.004C424.346 382.897 398.746 396.551 373.146 396.551Z" fill="black"/>
<path d="M391.92 393.991C391.067 393.991 389.36 393.991 388.507 393.138C361.2 380.338 342.427 358.151 334.747 330.845C327.067 303.538 332.187 272.818 348.4 248.072C369.733 201.139 348.4 148.232 299.76 126.045C295.493 124.338 293.787 119.218 295.493 114.952C297.2 110.684 302.32 108.977 306.586 110.684C363.759 137.137 388.506 199.431 363.759 254.897C363.759 255.75 362.906 255.75 362.906 255.75C349.253 277.083 344.133 301.83 350.959 324.87C356.932 347.057 373.146 365.83 395.332 376.923C399.599 378.63 401.305 383.75 399.599 388.016C398.746 391.431 395.333 393.991 391.92 393.991Z" fill="black"/>
<path d="M392.773 618.417C347.546 618.417 301.466 603.057 265.626 572.337L259.653 566.364C246 553.564 238.32 537.351 237.466 518.577C236.613 500.657 244.293 483.59 257.093 469.937C325.36 397.404 441.413 393.99 516.506 463.964L522.479 469.937C536.132 481.884 543.812 498.95 544.666 516.87C545.519 534.79 537.839 551.857 525.039 565.51C489.2 600.497 441.413 618.417 392.773 618.417ZM276.72 559.537C344.133 617.564 449.947 615.004 512.24 553.564C521.627 544.177 527.6 531.377 526.747 517.724C526.747 504.071 520.774 492.124 510.534 482.737L503.707 476.764C435.44 413.617 329.627 416.177 268.187 481.884C259.654 492.124 254.534 504.924 254.534 518.577C254.534 532.23 260.507 544.177 270.747 553.564L276.72 559.537Z" fill="black"/>
<path d="M467.013 558.684C439.706 558.684 412.4 545.884 387.653 521.137C345.84 479.324 299.76 480.177 251.12 524.55C247.707 527.963 242.587 527.11 239.173 523.697C235.76 520.284 236.613 515.164 240.026 511.75C294.639 462.257 351.813 461.403 399.599 509.19C441.412 551.857 488.346 552.71 530.159 512.603C533.572 509.19 538.692 509.19 542.106 512.603C545.519 516.016 545.519 521.136 542.106 524.55C518.213 547.591 492.613 558.684 467.013 558.684Z" fill="black"/>
<path d="M254.533 260.017C254.533 254.897 251.12 251.484 246 251.484C240.88 251.484 237.467 254.897 237.467 260.017C237.467 265.137 240.88 268.55 246 268.55C251.12 268.55 254.533 265.137 254.533 260.017Z" fill="black"/>
</g>
<defs>
<clipPath id="clip0">
<rect width="513.32" height="513.32" fill="white" transform="translate(237 106)"/>
</clipPath>
</defs>
</svg>
